# xmcd
#
# Track frame offsets: 
#        150
#        11349
#        22482
#        36159
#        55714
#        80708
#        104780
#        124704
#        144980
#        169370
#        190912
#        219744
#        235635
#        246333
#        256408
#        268868
#        285611
#        315779
#
# Disc length: 4451 seconds
#
# Revision: 1
# Processed by: cddbd v1.5.2PL0 Copyright (c) Steve Scherf et al.
# Submitted via: ExactAudioCopy v0.99pb4
#
DISCID=09116112
DTITLE=Various Artist - Best Sacred 100 Sacred Glories of the Baroque
DYEAR=1900
DGENRE=Classical
TTITLE0=Vivaldi - Gloria
TTITLE1=Vivaldi - Gloria
TTITLE2=JS Bach - Magnificat
TTITLE3=Handel - Messiah - For unto us a child is born
TTITLE4=Bach - Christmas Oratorio - Bereite dich, Zion
TTITLE5=Handel - Zadok the Priest
TTITLE6=Bach - Mass in B minor
TTITLE7=Bach - Mass in B minor
TTITLE8=O Mensch, bewein dein' Sunde groB
TTITLE9=Wachet auf (Chorale)
TTITLE10=St Matthew Passion - Erbarme dich
TTITLE11=Jesu bleibet meine Freude
TTITLE12=Purcell - Thou knowest, Lord
TTITLE13=Hear my prayer, O Lord
TTITLE14=Bach - St Matthew Passion - Passion Chorale
TTITLE15=Lotti - Crucifixus
TTITLE16=Handel - Messiah
TTITLE17=Handel - Messiah
EXTD=
EXTT0=
EXTT1=
EXTT2=
EXTT3=
EXTT4=
EXTT5=
EXTT6=
EXTT7=
EXTT8=
EXTT9=
EXTT10=
EXTT11=
EXTT12=
EXTT13=
EXTT14=
EXTT15=
EXTT16=
EXTT17=
PLAYORDER=
